<mxfile host="app.diagrams.net" modified="2024-06-20T11:20:48.474Z" agent="Mozilla/5.0 (Windows NT 10.0; Win64; x64) AppleWebKit/537.36 (KHTML, like Gecko) Chrome/126.0.0.0 Safari/537.36 Edg/126.0.0.0" etag="kZfZBb0cECU4uromAZaY" version="22.1.16" type="github">
  <diagram name="Page-1" id="Jnt09SmY0PYEbNtT9ruw">
    <mxGraphModel dx="985" dy="430" grid="1" gridSize="10" guides="1" tooltips="1" connect="1" arrows="1" fold="1" page="1" pageScale="1" pageWidth="850" pageHeight="1100" math="0" shadow="0">
      <root>
        <mxCell id="0" />
        <mxCell id="1" parent="0" />
        <mxCell id="CFRHt3uOuzm32g7zARdI-1" value="" style="rounded=0;whiteSpace=wrap;html=1;" vertex="1" parent="1">
          <mxGeometry x="360" y="200" width="240" height="240" as="geometry" />
        </mxCell>
        <mxCell id="CFRHt3uOuzm32g7zARdI-20" value="" style="endArrow=none;html=1;rounded=0;exitX=0.5;exitY=1;exitDx=0;exitDy=0;strokeColor=#BDBDBD;" edge="1" parent="1" source="CFRHt3uOuzm32g7zARdI-1">
          <mxGeometry width="50" height="50" relative="1" as="geometry">
            <mxPoint x="370" y="330" as="sourcePoint" />
            <mxPoint x="480" y="200" as="targetPoint" />
          </mxGeometry>
        </mxCell>
        <mxCell id="CFRHt3uOuzm32g7zARdI-2" value="" style="shape=xor;whiteSpace=wrap;html=1;rotation=90;" vertex="1" parent="1">
          <mxGeometry x="462.5" y="182.5" width="30" height="45" as="geometry" />
        </mxCell>
        <mxCell id="CFRHt3uOuzm32g7zARdI-5" value="" style="rhombus;whiteSpace=wrap;html=1;" vertex="1" parent="1">
          <mxGeometry x="345" y="150" width="95" height="70" as="geometry" />
        </mxCell>
        <mxCell id="CFRHt3uOuzm32g7zARdI-4" value="" style="rounded=0;whiteSpace=wrap;html=1;strokeColor=#FFFFFF;" vertex="1" parent="1">
          <mxGeometry x="320" y="140" width="220" height="60" as="geometry" />
        </mxCell>
        <mxCell id="CFRHt3uOuzm32g7zARdI-10" value="" style="endArrow=none;html=1;rounded=0;" edge="1" parent="1">
          <mxGeometry width="50" height="50" relative="1" as="geometry">
            <mxPoint x="360" y="200" as="sourcePoint" />
            <mxPoint x="540" y="200" as="targetPoint" />
          </mxGeometry>
        </mxCell>
        <mxCell id="CFRHt3uOuzm32g7zARdI-12" value="" style="ellipse;whiteSpace=wrap;html=1;aspect=fixed;" vertex="1" parent="1">
          <mxGeometry x="100" y="260" width="30" height="30" as="geometry" />
        </mxCell>
        <mxCell id="CFRHt3uOuzm32g7zARdI-14" value="" style="html=1;verticalLabelPosition=bottom;align=center;labelBackgroundColor=#ffffff;verticalAlign=top;strokeWidth=2;strokeColor=#0080F0;shadow=0;dashed=0;shape=mxgraph.ios7.icons.lightbulb;" vertex="1" parent="1">
          <mxGeometry x="414" y="240" width="22.8" height="29.7" as="geometry" />
        </mxCell>
        <mxCell id="CFRHt3uOuzm32g7zARdI-15" value="" style="html=1;verticalLabelPosition=bottom;align=center;labelBackgroundColor=#ffffff;verticalAlign=top;strokeWidth=2;strokeColor=#0080F0;shadow=0;dashed=0;shape=mxgraph.ios7.icons.lightbulb;" vertex="1" parent="1">
          <mxGeometry x="530" y="240" width="22.8" height="29.7" as="geometry" />
        </mxCell>
        <mxCell id="CFRHt3uOuzm32g7zARdI-16" value="" style="html=1;verticalLabelPosition=bottom;align=center;labelBackgroundColor=#ffffff;verticalAlign=top;strokeWidth=2;strokeColor=#0080F0;shadow=0;dashed=0;shape=mxgraph.ios7.icons.lightbulb;" vertex="1" parent="1">
          <mxGeometry x="414" y="360" width="22.8" height="29.7" as="geometry" />
        </mxCell>
        <mxCell id="CFRHt3uOuzm32g7zARdI-17" value="" style="html=1;verticalLabelPosition=bottom;align=center;labelBackgroundColor=#ffffff;verticalAlign=top;strokeWidth=2;strokeColor=#0080F0;shadow=0;dashed=0;shape=mxgraph.ios7.icons.lightbulb;" vertex="1" parent="1">
          <mxGeometry x="530" y="360" width="22.8" height="29.7" as="geometry" />
        </mxCell>
        <mxCell id="CFRHt3uOuzm32g7zARdI-18" value="" style="endArrow=none;html=1;rounded=0;entryX=1;entryY=0.5;entryDx=0;entryDy=0;exitX=0;exitY=0.5;exitDx=0;exitDy=0;strokeColor=#BDBDBD;" edge="1" parent="1" source="CFRHt3uOuzm32g7zARdI-1" target="CFRHt3uOuzm32g7zARdI-1">
          <mxGeometry width="50" height="50" relative="1" as="geometry">
            <mxPoint x="390" y="260" as="sourcePoint" />
            <mxPoint x="440" y="210" as="targetPoint" />
          </mxGeometry>
        </mxCell>
        <mxCell id="CFRHt3uOuzm32g7zARdI-21" value="cá»­a" style="text;html=1;strokeColor=none;fillColor=none;align=center;verticalAlign=middle;whiteSpace=wrap;rounded=0;" vertex="1" parent="1">
          <mxGeometry x="381.25" y="187.5" width="22.5" height="40" as="geometry" />
        </mxCell>
        <mxCell id="CFRHt3uOuzm32g7zARdI-22" value="camera" style="text;html=1;strokeColor=none;fillColor=none;align=center;verticalAlign=middle;whiteSpace=wrap;rounded=0;" vertex="1" parent="1">
          <mxGeometry x="463.13" y="190" width="28.75" height="30" as="geometry" />
        </mxCell>
      </root>
    </mxGraphModel>
  </diagram>
</mxfile>
